<svg width="360" height="240" viewBox="0 0 360 240" fill="none" xmlns="http://www.w3.org/2000/svg">
  <rect width="360" height="240" rx="28" fill="url(#paint0_linear)"/>
  <ellipse cx="185" cy="198" rx="88" ry="17" fill="#CDA98A" fill-opacity="0.35"/>
  <path d="M120 85C120 75.059 128.059 67 138 67H203C212.941 67 221 75.059 221 85V168C221 182.359 209.359 194 195 194H146C131.641 194 120 182.359 120 168V85Z" fill="#FFFDFB"/>
  <path d="M220 92H248C263.464 92 276 104.536 276 120C276 135.464 263.464 148 248 148H220V92Z" fill="#F3EEE8"/>
  <path d="M235 106H247C254.732 106 261 112.268 261 120C261 127.732 254.732 134 247 134H235V106Z" fill="url(#paint1_linear)"/>
  <ellipse cx="170" cy="67" rx="44" ry="9" fill="#F0E9E2"/>
  <defs>
    <linearGradient id="paint0_linear" x1="28" y1="22" x2="327" y2="217" gradientUnits="userSpaceOnUse">
      <stop stop-color="#F7E7D8"/>
      <stop offset="1" stop-color="#E2C8AE"/>
    </linearGradient>
    <linearGradient id="paint1_linear" x1="235" y1="106" x2="261" y2="134" gradientUnits="userSpaceOnUse">
      <stop stop-color="#EAE2DA"/>
      <stop offset="1" stop-color="#D8C5B4"/>
    </linearGradient>
  </defs>
</svg>
