<svg width="360" height="240" viewBox="0 0 360 240" fill="none" xmlns="http://www.w3.org/2000/svg">
  <rect width="360" height="240" rx="28" fill="url(#paint0_linear)"/>
  <ellipse cx="182" cy="193" rx="94" ry="18" fill="#B99787" fill-opacity="0.24"/>
  <ellipse cx="174" cy="175" rx="92" ry="18" fill="#EED8CD"/>
  <rect x="92" y="93" width="164" height="78" rx="18" fill="#FFFDFB"/>
  <path d="M240 110H270C281.046 110 290 118.954 290 130C290 141.046 281.046 150 270 150H240V110Z" fill="#F4EEE8"/>
  <path d="M252 121H268C272.418 121 276 124.582 276 129V131C276 135.418 272.418 139 268 139H252V121Z" fill="#E1D4C8"/>
  <rect x="124" y="74" width="98" height="18" rx="9" fill="#FBF8F5"/>
  <circle cx="132" cy="132" r="10" fill="#C98B67"/>
  <rect x="148" y="126" width="59" height="12" rx="6" fill="#EEDFD5"/>
  <defs>
    <linearGradient id="paint0_linear" x1="24" y1="16" x2="320" y2="220" gradientUnits="userSpaceOnUse">
      <stop stop-color="#F6E7E2"/>
      <stop offset="1" stop-color="#C7AEA1"/>
    </linearGradient>
  </defs>
</svg>
